<svg xmlns="http://www.w3.org/2000/svg" width="17" height="32.938"><path data-name="Фигура 8" d="M16.694.094l-4.775-.107a6.959 6.959 0 00-5.048 2.015 7.058 7.058 0 00-2.105 5.057v4.578H.329a.332.332 0 00-.33.334v5.752a.332.332 0 00.33.334h4.437v14.555a.332.332 0 00.33.334h5.876a.332.332 0 00.33-.334V18.057h4.473a.333.333 0 00.328-.291l.739-5.752a.34.34 0 00-.079-.264.331.331 0 00-.248-.113h-5.221V8.728a3.356 3.356 0 01.606-2.22 1.787 1.787 0 011.406-.553h3.375a.332.332 0 00.33-.334V.428a.332.332 0 00-.317-.334z" fill="#58595b" fill-rule="evenodd"/></svg>