<svg xmlns="http://www.w3.org/2000/svg" width="17" height="32.938"><path data-name="Фигура 8" d="M16.694.094l-4.775-.108a6.964 6.964 0 00-5.048 2.016 7.055 7.055 0 00-2.105 5.056v4.579H.329a.332.332 0 00-.33.334v5.752a.332.332 0 00.33.334h4.437v14.555a.332.332 0 00.33.334h5.876a.332.332 0 00.33-.334V18.057h4.473a.333.333 0 00.328-.291l.739-5.752a.34.34 0 00-.079-.264.331.331 0 00-.248-.113h-5.221V8.728a3.356 3.356 0 01.606-2.22 1.784 1.784 0 011.406-.554h3.375a.332.332 0 00.33-.333V.428a.332.332 0 00-.317-.334z" fill="#ffc116" fill-rule="evenodd"/></svg>