<svg xmlns="http://www.w3.org/2000/svg" width="30" height="30"><path data-name="Фигура 9" d="M21.358 0H8.641A8.652 8.652 0 000 8.64v12.717A8.652 8.652 0 008.641 30h12.717A8.652 8.652 0 0030 21.357V8.64A8.652 8.652 0 0021.358 0zm5.581 21.359a5.588 5.588 0 01-5.581 5.581H8.641a5.587 5.587 0 01-5.58-5.581V8.64a5.587 5.587 0 015.58-5.581h12.717a5.588 5.588 0 015.581 5.581v12.717zM15 8.032A6.967 6.967 0 1021.966 15 6.974 6.974 0 0015 8.032zm0 10.73A3.764 3.764 0 1118.763 15 3.768 3.768 0 0115 18.762zm7.806-13.751a2.067 2.067 0 102.066 2.066 2.066 2.066 0 00-2.066-2.066z" fill="#58595b" fill-rule="evenodd"/></svg>