<svg xmlns="http://www.w3.org/2000/svg" width="135" height="180"><defs><filter id="a" x="1462" y="926" width="135" height="180" filterUnits="userSpaceOnUse"><feOffset result="offset" dy="5" in="SourceAlpha"/><feGaussianBlur result="blur" stdDeviation="3.162"/><feFlood result="flood" flood-color="#1e2e61" flood-opacity=".1"/><feComposite result="composite" operator="in" in2="blur"/><feBlend result="blend" in="SourceGraphic"/></filter></defs><path data-name="Фигура 12" d="M1518.85 957.72h-28.98a2.65 2.65 0 010-5.3h28.98a2.65 2.65 0 010 5.3zm31.55 16.18h-46.04a2.65 2.65 0 010-5.3h46.04a2.65 2.65 0 010 5.3zm-23.03 16.178h-23.01a2.65 2.65 0 010-5.3h23.01a2.65 2.65 0 010 5.3zm0 16.192h-23.01a2.65 2.65 0 010-5.3h23.01a2.65 2.65 0 010 5.3zm-9.83 16.18h-13.18a2.655 2.655 0 010-5.31h13.18a2.655 2.655 0 010 5.31zm-23.73-48.55h-3.94a2.65 2.65 0 010-5.3h3.94a2.65 2.65 0 010 5.3zm0 16.178h-3.94a2.65 2.65 0 010-5.3h3.94a2.65 2.65 0 010 5.3zm0 16.192h-3.94a2.65 2.65 0 010-5.3h3.94a2.65 2.65 0 010 5.3zm0 16.18h-3.94a2.656 2.656 0 010-5.31h3.94a2.655 2.655 0 010 5.31zm23.73 16.18h-13.18a2.65 2.65 0 010-5.3h13.18a2.65 2.65 0 010 5.3zm-23.73 0h-3.94a2.65 2.65 0 010-5.3h3.94a2.65 2.65 0 010 5.3zm86.07 24.43a75.8 75.8 0 003.23-23.12l.01-14.33a8.03 8.03 0 00-7.96-8.07h-.01a7.838 7.838 0 00-4.05 1.12 7.956 7.956 0 00-6.65-3.62 7.821 7.821 0 00-4.67 1.53c-.12-.14-.26-.29-.39-.43a7.925 7.925 0 00-5.64-2.37 7.791 7.791 0 00-2.74.5v-21.231a7.961 7.961 0 10-15.92-.012v17.333a7.7 7.7 0 00-2.68-.46h-.01a7.773 7.773 0 00-5.58 2.33 8.015 8.015 0 00-2.31 5.69l.03 22.02a38.519 38.519 0 007.4 23.02 6.335 6.335 0 00-5.24 6.24v13.46a6.306 6.306 0 006.27 6.33l45.4-.01h.01a6.147 6.147 0 004.42-1.85 6.4 6.4 0 001.83-4.49v-13.44a6.339 6.339 0 00-4.75-6.14zm-50.16-45.15a2.724 2.724 0 01.8-1.93 2.6 2.6 0 011.88-.8h.01a2.71 2.71 0 012.68 2.73v12.19a2.625 2.625 0 002.6 2.65 2.635 2.635 0 002.62-2.65v-37.073a2.766 2.766 0 012.73-2.779 2.707 2.707 0 011.95.824 2.8 2.8 0 01.8 1.967v28.641a.915.915 0 00-.01.17h.01a2.61 2.61 0 105.22 0 2.766 2.766 0 012.74-2.78 2.675 2.675 0 011.94.81 2.818 2.818 0 01.8 1.97v1.25a2.615 2.615 0 105.23 0 2.735 2.735 0 115.47.01v2.51a2.646 2.646 0 002.61 2.65h.02a2.64 2.64 0 002.6-2.66 2.712 2.712 0 01.8-1.95 2.684 2.684 0 011.94-.82 2.755 2.755 0 012.73 2.77v14.33c0 11.96-2.34 19.82-3.48 22.91h-35.68a32.488 32.488 0 01-8.96-22.92zm49.68 64.73a1.025 1.025 0 01-.3.74.971.971 0 01-.72.3h-45.41a1.035 1.035 0 01-1.04-1.02v-13.46a1.039 1.039 0 011.04-1.04h45.41a1.035 1.035 0 011.02 1.04v13.44zm-53.13-31.03h-47.6V937.293h63.1v17.772a2.64 2.64 0 002.61 2.655h17.54v57.73a7.889 7.889 0 015.22.07v-60.455a2.813 2.813 0 00-.05-.508 3.451 3.451 0 00-.22-.645 1.163 1.163 0 01-.08-.157 3.65 3.65 0 00-.41-.566l-20.15-20.414a2.789 2.789 0 00-.55-.42c-.05-.033-.11-.055-.17-.09a2.77 2.77 0 00-.62-.225 2.587 2.587 0 00-.51-.046h-68.31a2.625 2.625 0 00-2.62 2.644v119.612a2.635 2.635 0 002.62 2.65h52.26a38.632 38.632 0 01-2.06-5.29zm20.72-110.578l11.23 11.389h-11.23v-11.389zm27.32 134.9a2.765 2.765 0 11-2.77-2.81 2.787 2.787 0 012.77 2.808z" transform="translate(-1462 -926)" fill="#fff" fill-rule="evenodd" filter="url(#a)"/></svg>