<svg xmlns="http://www.w3.org/2000/svg" width="200" height="188"><defs><filter id="a" x="1113" y="918" width="200" height="188" filterUnits="userSpaceOnUse"><feOffset result="offset" dy="5" in="SourceAlpha"/><feGaussianBlur result="blur" stdDeviation="3.162"/><feFlood result="flood" flood-color="#1e2e61" flood-opacity=".1"/><feComposite result="composite" operator="in" in2="blur"/><feBlend result="blend" in="SourceGraphic"/></filter></defs><path data-name="Фигура 13" d="M1263.19 923.991c-32.31 0-45.86 6.489-50.7 9.823-4.83-3.334-18.4-9.823-50.7-9.823a3.033 3.033 0 00-3.02 3.038v84.291a3.041 3.041 0 003.02 3.04c38.41 0 48.43 9.64 48.49 9.69a2.5 2.5 0 00.24.22c.05.04.1.09.15.13a3.179 3.179 0 00.69.4.032.032 0 01.03.03.22.22 0 01.08.01 2.938 2.938 0 001.02.2 3.04 3.04 0 001.03-.2.225.225 0 01.07-.01.062.062 0 01.04-.03 3.434 3.434 0 00.69-.4 1.788 1.788 0 00.14-.13 2.622 2.622 0 00.25-.22c.09-.09 10-9.69 48.48-9.69a3.034 3.034 0 003.02-3.04v-84.291a3.026 3.026 0 00-3.02-3.038zm-98.38 6.088c30.23.4 41.74 6.953 44.68 9.047v77.184c-6.38-3.31-19.51-7.68-44.68-8v-78.231zm95.37 78.231c-25.18.32-38.3 4.69-44.67 8v-77.2c2.91-2.093 14.36-8.633 44.67-9.034v78.231zm40.53 56.39a.417.417 0 00-.02-.06l-21.38-43.39a2.388 2.388 0 00-.45-.67v-82.85a3.022 3.022 0 00-3.02-3.024h-9.63v6.061h6.61v78.483h-48.49c-7.13 2.39-9.57 4.75-9.62 4.8a2.622 2.622 0 01-.25.22 1.788 1.788 0 01-.14.13 3.434 3.434 0 01-.69.4.062.062 0 00-.04.03.225.225 0 00-.07.01 3.04 3.04 0 01-1.03.2 2.938 2.938 0 01-1.02-.2.22.22 0 00-.08-.01.032.032 0 00-.03-.03 3.179 3.179 0 01-.69-.4c-.05-.04-.1-.09-.15-.13a2.5 2.5 0 01-.24-.22c-.04-.02-2.5-2.4-9.68-4.8h-48.44v-78.483h6.61v-6.061h-9.62a3.022 3.022 0 00-3.02 3.024v82.89a3.544 3.544 0 00-.44.63l-21.36 43.39a.329.329 0 01-.03.06 3.006 3.006 0 00-.29 1.28v19.98a3.041 3.041 0 003.02 3.04h170.96a3.017 3.017 0 003-3.04v-19.98a3 3 0 00-.28-1.28zm-150.43-39.07h124.47l18.38 37.33h-161.24zm144.68 57.31h-164.92v-13.92h164.92v13.92zm-93.6-130.64a3.015 3.015 0 01-1.65-.5c-6.2-4.175-17.41-5.04-25.7-5.04a3.038 3.038 0 010-6.075c13.29 0 23.05 2.029 28.99 6.035a3.039 3.039 0 01-1.64 5.58zm0 16.169a2.921 2.921 0 01-1.65-.518c-6.2-4.174-17.41-5.039-25.7-5.039a3.031 3.031 0 010-6.061c13.29 0 23.05 2.027 28.99 6.034a3.064 3.064 0 01.87 4.214 3.027 3.027 0 01-2.51 1.366zm0 16.169a3.024 3.024 0 01-1.65-.518c-6.2-4.174-17.41-5.04-25.7-5.04a3.037 3.037 0 010-6.074c13.29 0 23.05 2.042 28.99 6.035a3.049 3.049 0 01-1.64 5.593zm0 16.156a3.06 3.06 0 01-1.65-.5c-6.2-4.179-17.41-5.059-25.7-5.059a3.031 3.031 0 010-6.061c13.29 0 23.05 2.029 28.99 6.036a3.039 3.039 0 01-1.64 5.58zm22.27-48.494a3.065 3.065 0 001.65-.5c6.21-4.175 17.4-5.04 25.7-5.04a3.038 3.038 0 000-6.075c-13.29 0-23.05 2.029-28.99 6.035a3.077 3.077 0 00-.87 4.228 3 3 0 002.51 1.352zm0 16.169a2.968 2.968 0 001.65-.518c6.21-4.174 17.4-5.039 25.7-5.039a3.031 3.031 0 000-6.061c-13.29 0-23.05 2.027-28.99 6.034a3.064 3.064 0 00-.87 4.214 2.976 2.976 0 002.51 1.366zm0 16.169a3.075 3.075 0 001.65-.518c6.21-4.174 17.4-5.04 25.7-5.04a3.037 3.037 0 000-6.074c-13.29 0-23.05 2.042-28.99 6.035a3.079 3.079 0 00-.87 4.227 3.01 3.01 0 002.51 1.366zm0 16.156a3.112 3.112 0 001.65-.5c6.21-4.179 17.4-5.059 25.7-5.059a3.031 3.031 0 000-6.061c-13.29 0-23.05 2.029-28.99 6.036a3.075 3.075 0 00-.87 4.226 3 3 0 002.51 1.354zm42.3 36.74h-106.85a3.03 3.03 0 010-6.06h106.85a3.03 3.03 0 010 6.056zm6.67 13.26h-120.2a3.035 3.035 0 010-6.07h120.2a3.035 3.035 0 010 6.066zm-43.18 28.22h-33.85a3.04 3.04 0 010-6.08h33.85a3.04 3.04 0 010 6.076z" transform="translate(-1113 -918)" fill="#7721db" fill-rule="evenodd" filter="url(#a)"/></svg>