<svg xmlns="http://www.w3.org/2000/svg" width="167" height="160"><defs><filter id="a" x="1587" y="936" width="167" height="160" filterUnits="userSpaceOnUse"><feOffset result="offset" dy="5" in="SourceAlpha"/><feGaussianBlur result="blur" stdDeviation="3.162"/><feFlood result="flood" flood-color="#1e2e61" flood-opacity=".1"/><feComposite result="composite" operator="in" in2="blur"/><feBlend result="blend" in="SourceGraphic"/></filter></defs><path data-name="Фигура 11" d="M1738.11 1025.14c-4.89-3.45-8.75-.17-14.09 4.38a121.064 121.064 0 01-15.11 11.33.213.213 0 000-.08c-.39-3.72-1.78-6.46-4.12-8.13a9.784 9.784 0 00-7.5-1.47c-15.34 3.68-18.33 2.65-22.12 1.34-4.86-1.67-10.92-3.76-37.13.43a.433.433 0 01-.05.01 2.1 2.1 0 00-.24.06c-.09.03-.15.04-.22.07s-.14.07-.21.1l-.21.12-.17.14c-.06.05-.12.09-.19.14l-.15.18c-.04.06-.09.11-.13.17a2.247 2.247 0 00-.12.21 1.324 1.324 0 00-.12.2 1.723 1.723 0 00-.07.21 2.172 2.172 0 00-.07.24 1.517 1.517 0 00-.03.21 2.477 2.477 0 00-.03.27v.05l.15 35.25a2.415 2.415 0 001.77 2.31 92.182 92.182 0 0021.52 2.27c20.78 0 52.93-5.83 79.45-36.1.35-.36 3.43-3.69 3.04-7.83a8.331 8.331 0 00-3.85-6.08zm-2.7 10.65c-36.8 41.96-84.71 34.82-94.44 32.83l-.13-31.24c23.28-3.57 28.54-1.76 32.77-.3 5.02 1.73 8.92 2.59 24.78-1.22a5.115 5.115 0 013.62.7c1.17.85 1.89 2.43 2.13 4.71a2.991 2.991 0 01-.83 2.38c-1.91 2.22-8.49 6.06-31.2 6.96a2.382 2.382 0 00-2.3 2.49 2.411 2.411 0 002.4 2.32h.09c15.28-.6 25.61-2.55 31.3-5.94h.01a121.672 121.672 0 0023.52-16.29c5.6-4.75 6.59-5.26 8.21-4.11a3.77 3.77 0 011.85 2.59c.16 1.65-1.19 3.49-1.78 4.12zm-113.44 42.26h-14.19a9.8 9.8 0 01-9.78-9.82v-30.73a9.8 9.8 0 019.78-9.83h14.19a9.8 9.8 0 019.76 9.83v30.73a9.8 9.8 0 01-9.76 9.82zm-14.19-45.56a5 5 0 00-4.99 5.01v30.73a4.991 4.991 0 004.99 4.99h14.19a4.987 4.987 0 004.97-4.99v-30.73a5 5 0 00-4.97-5.01h-14.19zm7.09 36.66a8.105 8.105 0 118.06-8.11 8.1 8.1 0 01-8.06 8.11zm0-11.39a3.28 3.28 0 103.26 3.28 3.28 3.28 0 00-3.26-3.28zm96.25-114.973c-21 0-30.3 4.964-33.9 7.791-3.61-2.827-12.92-7.791-33.91-7.791a2.4 2.4 0 00-2.39 2.414v68.489a2.394 2.394 0 002.39 2.41c25.37 0 31.97 7.69 32 7.73a2.373 2.373 0 001.91.95 1.773 1.773 0 00.4-.08.875.875 0 00.16-.02.711.711 0 00.2-.04 1.76 1.76 0 00.2-.09c.07-.04.14-.07.21-.11.11-.07.22-.13.31-.19a2.107 2.107 0 00.4-.39c.05-.07 6.65-7.76 32.02-7.76a2.394 2.394 0 002.39-2.41V945.2a2.4 2.4 0 00-2.39-2.413zm-65.41 4.851c19.8.391 27.27 5.612 29.11 7.225v62.587c-4.53-2.64-13.26-5.86-29.11-6.15v-63.662zm63.02 63.662c-15.85.29-24.59 3.51-29.12 6.15v-62.576c1.89-1.665 9.38-6.845 29.12-7.236v63.662zm10.85-59.808h-6.07v4.821h3.67v63.867h-32.12c-4.39 1.85-5.93 3.65-5.96 3.68a2.107 2.107 0 01-.4.39c-.09.06-.2.12-.31.19-.07.04-.14.07-.21.11a1.76 1.76 0 01-.2.09.711.711 0 01-.2.04.875.875 0 01-.16.02 1.773 1.773 0 01-.4.08 2.373 2.373 0 01-1.91-.95c-.02-.02-1.56-1.8-5.93-3.65h-32.13v-63.867h3.67v-4.821h-6.07a2.4 2.4 0 00-2.39 2.405v68.693a2.4 2.4 0 002.39 2.41h84.73a2.4 2.4 0 002.4-2.41V953.9a2.4 2.4 0 00-2.4-2.408z" transform="translate(-1587 -936)" fill="#fff" fill-rule="evenodd" filter="url(#a)"/></svg>