<svg xmlns="http://www.w3.org/2000/svg" width="17" height="32.938" viewBox="0 0 17 32.938">
  <defs>
    <style>
      .cls-1 {
        fill: #58595b;
        fill-rule: evenodd;
      }
    </style>
  </defs>
  <path id="Фигура_8" data-name="Фигура 8" class="cls-1" d="M800.6,890.125l-4.775-.107a6.959,6.959,0,0,0-5.048,2.015,7.058,7.058,0,0,0-2.105,5.057v4.578h-4.437a0.332,0.332,0,0,0-.33.334v5.752a0.332,0.332,0,0,0,.33.334h4.437v14.555a0.332,0.332,0,0,0,.33.334h5.876a0.332,0.332,0,0,0,.33-0.334V908.088h4.473a0.333,0.333,0,0,0,.328-0.291l0.739-5.752a0.34,0.34,0,0,0-.079-0.264,0.331,0.331,0,0,0-.248-0.113H795.2l0-2.909a3.356,3.356,0,0,1,.606-2.22,1.787,1.787,0,0,1,1.406-.553h3.375a0.332,0.332,0,0,0,.33-0.334v-5.193A0.332,0.332,0,0,0,800.6,890.125Z" transform="translate(-783.906 -890.031)"/>
</svg>
