<svg xmlns="http://www.w3.org/2000/svg" width="30" height="30" viewBox="0 0 30 30">
  <defs>
    <style>
      .cls-1 {
        fill: #ffc116;
        fill-rule: evenodd;
      }
    </style>
  </defs>
  <path id="Фигура_9" data-name="Фигура 9" class="cls-1" d="M857.358,837H844.641A8.652,8.652,0,0,0,836,845.64v12.717A8.652,8.652,0,0,0,844.641,867h12.717A8.652,8.652,0,0,0,866,858.357V845.64A8.652,8.652,0,0,0,857.358,837Zm5.581,21.359a5.588,5.588,0,0,1-5.581,5.581H844.641a5.587,5.587,0,0,1-5.58-5.581V845.64a5.587,5.587,0,0,1,5.58-5.581h12.717a5.588,5.588,0,0,1,5.581,5.581v12.717ZM851,845.032A6.967,6.967,0,1,0,857.966,852,6.974,6.974,0,0,0,851,845.032Zm0,10.73A3.764,3.764,0,1,1,854.763,852,3.768,3.768,0,0,1,851,855.762Zm7.806-13.751a2.066,2.066,0,1,0,2.066,2.066A2.066,2.066,0,0,0,858.806,842.011Z" transform="translate(-836 -837)"/>
</svg>
