<svg xmlns="http://www.w3.org/2000/svg" width="27.781" height="36" viewBox="0 0 27.781 36">
  <defs>
    <style>
      .cls-1 {
        fill: #58595b;
        fill-rule: evenodd;
      }
    </style>
  </defs>
  <path id="Фигура_3" data-name="Фигура 3" class="cls-1" d="M209.787,619l-4.1,4.078c-0.049.049-4.949,5.063-4.95,14.535,0,8.1,4.944,14.527,4.993,14.591l2.184,2.8L182,637.934v-0.626l0.262-.192Zm-6.537,31.534a26.494,26.494,0,0,1-3.679-12.921,24.414,24.414,0,0,1,3.3-12.664l-19.239,12.662ZM182.584,637.6v0.019l22.687,14.941s-5.119-6.551-5.117-14.948c0-9.855,5.122-14.947,5.122-14.947Z" transform="translate(-182 -619)"/>
</svg>
