<svg xmlns="http://www.w3.org/2000/svg" width="27.781" height="36" viewBox="0 0 27.781 36">
  <defs>
    <style>
      .cls-1 {
        fill: #ffc116;
        fill-rule: evenodd;
      }
    </style>
  </defs>
  <path id="Фигура_3" data-name="Фигура 3" class="cls-1" d="M217.212,593l4.1-4.079c0.049-.048,4.949-5.062,4.951-14.535,0-8.1-4.944-14.527-4.994-14.59l-2.184-2.8L245,574.064v0.626l-0.262.192Zm6.537-31.534a26.486,26.486,0,0,1,3.68,12.92,24.415,24.415,0,0,1-3.3,12.665l19.238-12.662ZM244.416,574.4v-0.019l-22.687-14.941s5.118,6.552,5.117,14.948c0,9.855-5.122,14.947-5.122,14.947Z" transform="translate(-217.219 -557)"/>
</svg>
