<svg xmlns="http://www.w3.org/2000/svg" width="27.781" height="36" viewBox="0 0 27.781 36">
  <defs>
    <style>
      .cls-1 {
        fill: #58595b;
        fill-rule: evenodd;
      }
    </style>
  </defs>
  <path id="Фигура_3" data-name="Фигура 3" class="cls-1" d="M217.212,655l4.1-4.078c0.049-.049,4.949-5.063,4.951-14.536,0-8.1-4.944-14.526-4.994-14.59l-2.184-2.8L245,636.064v0.626l-0.262.192Zm6.537-31.534a26.494,26.494,0,0,1,3.68,12.921,24.414,24.414,0,0,1-3.3,12.664l19.238-12.662ZM244.416,636.4v-0.019l-22.687-14.941s5.118,6.551,5.117,14.949c0,9.854-5.122,14.946-5.122,14.946Z" transform="translate(-217.219 -619)"/>
</svg>
