<svg xmlns="http://www.w3.org/2000/svg" xmlns:xlink="http://www.w3.org/1999/xlink" width="135" height="180" viewBox="0 0 135 180">
  <defs>
    <style>
      .cls-1 {
        fill: #7721db;
        fill-rule: evenodd;
        filter: url(#filter);
      }
    </style>
    <filter id="filter" x="1462" y="926" width="135" height="180" filterUnits="userSpaceOnUse">
      <feOffset result="offset" dy="5" in="SourceAlpha"/>
      <feGaussianBlur result="blur" stdDeviation="3.162"/>
      <feFlood result="flood" flood-color="#1e2e61" flood-opacity="0.1"/>
      <feComposite result="composite" operator="in" in2="blur"/>
      <feBlend result="blend" in="SourceGraphic"/>
    </filter>
  </defs>
  <path id="Фигура_12" data-name="Фигура 12" class="cls-1" d="M1518.85,957.72h-28.98a2.65,2.65,0,0,1,0-5.3h28.98A2.65,2.65,0,0,1,1518.85,957.72Zm31.55,16.18h-46.04a2.65,2.65,0,0,1,0-5.3h46.04A2.65,2.65,0,0,1,1550.4,973.9Zm-23.03,16.178h-23.01a2.65,2.65,0,0,1,0-5.3h23.01A2.65,2.65,0,0,1,1527.37,990.078Zm0,16.192h-23.01a2.65,2.65,0,0,1,0-5.3h23.01A2.65,2.65,0,0,1,1527.37,1006.27Zm-9.83,16.18h-13.18a2.655,2.655,0,0,1,0-5.31h13.18A2.655,2.655,0,0,1,1517.54,1022.45Zm-23.73-48.55h-3.94a2.65,2.65,0,0,1,0-5.3h3.94A2.65,2.65,0,0,1,1493.81,973.9Zm0,16.178h-3.94a2.65,2.65,0,0,1,0-5.3h3.94A2.65,2.65,0,0,1,1493.81,990.078Zm0,16.192h-3.94a2.65,2.65,0,0,1,0-5.3h3.94A2.65,2.65,0,0,1,1493.81,1006.27Zm0,16.18h-3.94a2.656,2.656,0,0,1,0-5.31h3.94A2.655,2.655,0,0,1,1493.81,1022.45Zm23.73,16.18h-13.18a2.65,2.65,0,0,1,0-5.3h13.18A2.65,2.65,0,0,1,1517.54,1038.63Zm-23.73,0h-3.94a2.65,2.65,0,0,1,0-5.3h3.94A2.65,2.65,0,0,1,1493.81,1038.63Zm86.07,24.43a75.8,75.8,0,0,0,3.23-23.12l0.01-14.33a8.03,8.03,0,0,0-7.96-8.07h-0.01a7.838,7.838,0,0,0-4.05,1.12,7.956,7.956,0,0,0-6.65-3.62,7.821,7.821,0,0,0-4.67,1.53c-0.12-.14-0.26-0.29-0.39-0.43a7.925,7.925,0,0,0-5.64-2.37,7.791,7.791,0,0,0-2.74.5V993.039a7.961,7.961,0,1,0-15.92-.012v17.333a7.7,7.7,0,0,0-2.68-.46h-0.01a7.773,7.773,0,0,0-5.58,2.33,8.015,8.015,0,0,0-2.31,5.69l0.03,22.02a38.519,38.519,0,0,0,7.4,23.02,6.335,6.335,0,0,0-5.24,6.24v13.46a6.306,6.306,0,0,0,6.27,6.33l45.4-.01h0.01a6.147,6.147,0,0,0,4.42-1.85,6.4,6.4,0,0,0,1.83-4.49V1069.2A6.339,6.339,0,0,0,1579.88,1063.06Zm-50.16-45.15a2.724,2.724,0,0,1,.8-1.93,2.6,2.6,0,0,1,1.88-.8h0.01a2.71,2.71,0,0,1,2.68,2.73v12.19a2.625,2.625,0,0,0,2.6,2.65h0a2.635,2.635,0,0,0,2.62-2.65V993.027a2.766,2.766,0,0,1,2.73-2.779,2.707,2.707,0,0,1,1.95.824,2.8,2.8,0,0,1,.8,1.967v28.641a0.915,0.915,0,0,0-.01.17h0.01a2.61,2.61,0,1,0,5.22,0,2.766,2.766,0,0,1,2.74-2.78,2.675,2.675,0,0,1,1.94.81,2.818,2.818,0,0,1,.8,1.97v1.25a2.615,2.615,0,1,0,5.23,0,2.735,2.735,0,1,1,5.47.01v2.51a2.646,2.646,0,0,0,2.61,2.65h0.02a2.64,2.64,0,0,0,2.6-2.66h0a2.712,2.712,0,0,1,.8-1.95,2.684,2.684,0,0,1,1.94-.82h0a2.755,2.755,0,0,1,2.73,2.77v14.33c0,11.96-2.34,19.82-3.48,22.91h-35.68a32.488,32.488,0,0,1-8.96-22.92Zm49.68,64.73a1.025,1.025,0,0,1-.3.74,0.971,0.971,0,0,1-.72.3h-45.41a1.035,1.035,0,0,1-1.04-1.02V1069.2a1.039,1.039,0,0,1,1.04-1.04h45.41a1.035,1.035,0,0,1,1.02,1.04v13.44Zm-53.13-31.03h-47.6V937.293h63.1v17.772a2.64,2.64,0,0,0,2.61,2.655h17.54v57.73a7.889,7.889,0,0,1,5.22.07V955.065a2.813,2.813,0,0,0-.05-0.508h0a3.451,3.451,0,0,0-.22-0.645,1.163,1.163,0,0,1-.08-0.157,3.65,3.65,0,0,0-.41-0.566l-20.15-20.414a2.789,2.789,0,0,0-.55-0.42c-0.05-.033-0.11-0.055-0.17-0.09a2.77,2.77,0,0,0-.62-0.225,2.587,2.587,0,0,0-.51-0.046h-68.31a2.625,2.625,0,0,0-2.62,2.644V1054.25a2.635,2.635,0,0,0,2.62,2.65h52.26A38.632,38.632,0,0,1,1526.27,1051.61Zm20.72-110.578,11.23,11.389h-11.23V941.032Zm27.32,134.9a2.765,2.765,0,1,1-2.77-2.81A2.787,2.787,0,0,1,1574.31,1075.93Z" transform="translate(-1462 -926)"/>
</svg>
