<svg xmlns="http://www.w3.org/2000/svg" xmlns:xlink="http://www.w3.org/1999/xlink" width="167" height="160" viewBox="0 0 167 160">
  <defs>
    <style>
      .cls-1 {
        fill: #fff;
        fill-rule: evenodd;
        filter: url(#filter);
      }
    </style>
    <filter id="filter" x="1587" y="936" width="167" height="160" filterUnits="userSpaceOnUse">
      <feOffset result="offset" dy="5" in="SourceAlpha"/>
      <feGaussianBlur result="blur" stdDeviation="3.162"/>
      <feFlood result="flood" flood-color="#1e2e61" flood-opacity="0.1"/>
      <feComposite result="composite" operator="in" in2="blur"/>
      <feBlend result="blend" in="SourceGraphic"/>
    </filter>
  </defs>
  <path id="Фигура_11" data-name="Фигура 11" class="cls-1" d="M1738.11,1025.14c-4.89-3.45-8.75-.17-14.09,4.38a121.064,121.064,0,0,1-15.11,11.33,0.213,0.213,0,0,0,0-.08c-0.39-3.72-1.78-6.46-4.12-8.13a9.784,9.784,0,0,0-7.5-1.47c-15.34,3.68-18.33,2.65-22.12,1.34-4.86-1.67-10.92-3.76-37.13.43a0.433,0.433,0,0,1-.05.01,2.1,2.1,0,0,0-.24.06c-0.09.03-.15,0.04-0.22,0.07s-0.14.07-.21,0.1l-0.21.12c-0.05.04-.11,0.09-0.17,0.14s-0.12.09-.19,0.14l-0.15.18c-0.04.06-.09,0.11-0.13,0.17a2.247,2.247,0,0,0-.12.21,1.324,1.324,0,0,0-.12.2,1.723,1.723,0,0,0-.07.21,2.172,2.172,0,0,0-.07.24,1.517,1.517,0,0,0-.03.21,2.477,2.477,0,0,0-.03.27v0.05l0.15,35.25a2.415,2.415,0,0,0,1.77,2.31,92.182,92.182,0,0,0,21.52,2.27c20.78,0,52.93-5.83,79.45-36.1,0.35-.36,3.43-3.69,3.04-7.83A8.331,8.331,0,0,0,1738.11,1025.14Zm-2.7,10.65c-36.8,41.96-84.71,34.82-94.44,32.83l-0.13-31.24c23.28-3.57,28.54-1.76,32.77-.3,5.02,1.73,8.92,2.59,24.78-1.22a5.115,5.115,0,0,1,3.62.7c1.17,0.85,1.89,2.43,2.13,4.71a2.991,2.991,0,0,1-.83,2.38c-1.91,2.22-8.49,6.06-31.2,6.96a2.382,2.382,0,0,0-2.3,2.49,2.411,2.411,0,0,0,2.4,2.32h0.09c15.28-.6,25.61-2.55,31.3-5.94h0.01a121.672,121.672,0,0,0,23.52-16.29c5.6-4.75,6.59-5.26,8.21-4.11a3.77,3.77,0,0,1,1.85,2.59C1737.35,1033.32,1736,1035.16,1735.41,1035.79Zm-113.44,42.26h-14.19a9.8,9.8,0,0,1-9.78-9.82V1037.5a9.8,9.8,0,0,1,9.78-9.83h14.19a9.8,9.8,0,0,1,9.76,9.83v30.73A9.8,9.8,0,0,1,1621.97,1078.05Zm-14.19-45.56a5,5,0,0,0-4.99,5.01v30.73a4.991,4.991,0,0,0,4.99,4.99h14.19a4.987,4.987,0,0,0,4.97-4.99V1037.5a5,5,0,0,0-4.97-5.01h-14.19Zm7.09,36.66a8.105,8.105,0,1,1,8.06-8.11A8.1,8.1,0,0,1,1614.87,1069.15Zm0-11.39a3.28,3.28,0,1,0,3.26,3.28A3.28,3.28,0,0,0,1614.87,1057.76Zm96.25-114.973c-21,0-30.3,4.964-33.9,7.791-3.61-2.827-12.92-7.791-33.91-7.791a2.4,2.4,0,0,0-2.39,2.414v68.489a2.394,2.394,0,0,0,2.39,2.41c25.37,0,31.97,7.69,32,7.73a2.373,2.373,0,0,0,1.91.95,1.773,1.773,0,0,0,.4-0.08,0.875,0.875,0,0,0,.16-0.02,0.711,0.711,0,0,0,.2-0.04,1.76,1.76,0,0,0,.2-0.09c0.07-.04.14-0.07,0.21-0.11,0.11-.07.22-0.13,0.31-0.19a2.107,2.107,0,0,0,.4-0.39c0.05-.07,6.65-7.76,32.02-7.76a2.394,2.394,0,0,0,2.39-2.41V945.2A2.4,2.4,0,0,0,1711.12,942.787Zm-65.41,4.851c19.8,0.391,27.27,5.612,29.11,7.225v62.587c-4.53-2.64-13.26-5.86-29.11-6.15V947.638Zm63.02,63.662c-15.85.29-24.59,3.51-29.12,6.15V954.874c1.89-1.665,9.38-6.845,29.12-7.236V1011.3Zm10.85-59.808h-6.07v4.821h3.67v63.867h-32.12c-4.39,1.85-5.93,3.65-5.96,3.68a2.107,2.107,0,0,1-.4.39c-0.09.06-.2,0.12-0.31,0.19-0.07.04-.14,0.07-0.21,0.11a1.76,1.76,0,0,1-.2.09,0.711,0.711,0,0,1-.2.04,0.875,0.875,0,0,1-.16.02,1.773,1.773,0,0,1-.4.08,2.373,2.373,0,0,1-1.91-.95c-0.02-.02-1.56-1.8-5.93-3.65h-32.13V956.313h3.67v-4.821h-6.07a2.4,2.4,0,0,0-2.39,2.405v68.693a2.4,2.4,0,0,0,2.39,2.41h84.73a2.4,2.4,0,0,0,2.4-2.41V953.9A2.4,2.4,0,0,0,1719.58,951.492Z" transform="translate(-1587 -936)"/>
</svg>
