<svg xmlns="http://www.w3.org/2000/svg" xmlns:xlink="http://www.w3.org/1999/xlink" width="200" height="188" viewBox="0 0 200 188">
  <defs>
    <style>
      .cls-1 {
        fill: #fff;
        fill-rule: evenodd;
        filter: url(#filter);
      }
    </style>
    <filter id="filter" x="1113" y="918" width="200" height="188" filterUnits="userSpaceOnUse">
      <feOffset result="offset" dy="5" in="SourceAlpha"/>
      <feGaussianBlur result="blur" stdDeviation="3.162"/>
      <feFlood result="flood" flood-color="#1e2e61" flood-opacity="0.1"/>
      <feComposite result="composite" operator="in" in2="blur"/>
      <feBlend result="blend" in="SourceGraphic"/>
    </filter>
  </defs>
  <path id="Фигура_13" data-name="Фигура 13" class="cls-1" d="M1263.19,923.991c-32.31,0-45.86,6.489-50.7,9.823-4.83-3.334-18.4-9.823-50.7-9.823a3.033,3.033,0,0,0-3.02,3.038v84.291a3.041,3.041,0,0,0,3.02,3.04c38.41,0,48.43,9.64,48.49,9.69a2.5,2.5,0,0,0,.24.22c0.05,0.04.1,0.09,0.15,0.13a3.179,3.179,0,0,0,.69.4,0.032,0.032,0,0,1,.03.03,0.22,0.22,0,0,1,.08.01,2.938,2.938,0,0,0,1.02.2h0a3.04,3.04,0,0,0,1.03-.2,0.225,0.225,0,0,1,.07-0.01,0.062,0.062,0,0,1,.04-0.03,3.434,3.434,0,0,0,.69-0.4,1.788,1.788,0,0,0,.14-0.13,2.622,2.622,0,0,0,.25-0.22c0.09-.09,10-9.69,48.48-9.69a3.034,3.034,0,0,0,3.02-3.04V927.029A3.026,3.026,0,0,0,1263.19,923.991Zm-98.38,6.088c30.23,0.4,41.74,6.953,44.68,9.047v77.184c-6.38-3.31-19.51-7.68-44.68-8V930.079Zm95.37,78.231c-25.18.32-38.3,4.69-44.67,8v-77.2c2.91-2.093,14.36-8.633,44.67-9.034v78.231Zm40.53,56.39a0.417,0.417,0,0,0-.02-0.06l-21.38-43.39a2.388,2.388,0,0,0-.45-0.67V937.73a3.022,3.022,0,0,0-3.02-3.024h-9.63v6.061h6.61v78.483h-48.49c-7.13,2.39-9.57,4.75-9.62,4.8a2.622,2.622,0,0,1-.25.22,1.788,1.788,0,0,1-.14.13,3.434,3.434,0,0,1-.69.4,0.062,0.062,0,0,0-.04.03,0.225,0.225,0,0,0-.07.01,3.04,3.04,0,0,1-1.03.2h0a2.938,2.938,0,0,1-1.02-.2,0.22,0.22,0,0,0-.08-0.01,0.032,0.032,0,0,0-.03-0.03,3.179,3.179,0,0,1-.69-0.4c-0.05-.04-0.1-0.09-0.15-0.13a2.5,2.5,0,0,1-.24-0.22c-0.04-.02-2.5-2.4-9.68-4.8h-48.44V940.767h6.61v-6.061h-9.62a3.022,3.022,0,0,0-3.02,3.024v82.89a3.544,3.544,0,0,0-.44.63l-21.36,43.39a0.329,0.329,0,0,1-.03.06,3.006,3.006,0,0,0-.29,1.28v19.98a3.041,3.041,0,0,0,3.02,3.04h170.96a3.017,3.017,0,0,0,3-3.04v-19.98A3,3,0,0,0,1300.71,1064.7Zm-150.43-39.07h124.47l18.38,37.33H1131.89Zm144.68,57.31H1130.04v-13.92h164.92v13.92ZM1201.36,952.3a3.015,3.015,0,0,1-1.65-.5c-6.2-4.175-17.41-5.04-25.7-5.04a3.038,3.038,0,0,1,0-6.075c13.29,0,23.05,2.029,28.99,6.035A3.039,3.039,0,0,1,1201.36,952.3Zm0,16.169a2.921,2.921,0,0,1-1.65-.518c-6.2-4.174-17.41-5.039-25.7-5.039a3.031,3.031,0,0,1,0-6.061c13.29,0,23.05,2.027,28.99,6.034a3.064,3.064,0,0,1,.87,4.214A3.027,3.027,0,0,1,1201.36,968.465Zm0,16.169a3.024,3.024,0,0,1-1.65-.518c-6.2-4.174-17.41-5.04-25.7-5.04a3.037,3.037,0,0,1,0-6.074c13.29,0,23.05,2.042,28.99,6.035A3.049,3.049,0,0,1,1201.36,984.634Zm0,16.156a3.06,3.06,0,0,1-1.65-.5c-6.2-4.179-17.41-5.059-25.7-5.059a3.031,3.031,0,0,1,0-6.061c13.29,0,23.05,2.029,28.99,6.036A3.039,3.039,0,0,1,1201.36,1000.79Zm22.27-48.494a3.065,3.065,0,0,0,1.65-.5c6.21-4.175,17.4-5.04,25.7-5.04a3.038,3.038,0,0,0,0-6.075c-13.29,0-23.05,2.029-28.99,6.035a3.077,3.077,0,0,0-.87,4.228A3,3,0,0,0,1223.63,952.3Zm0,16.169a2.968,2.968,0,0,0,1.65-.518c6.21-4.174,17.4-5.039,25.7-5.039a3.031,3.031,0,0,0,0-6.061c-13.29,0-23.05,2.027-28.99,6.034a3.064,3.064,0,0,0-.87,4.214A2.976,2.976,0,0,0,1223.63,968.465Zm0,16.169a3.075,3.075,0,0,0,1.65-.518c6.21-4.174,17.4-5.04,25.7-5.04a3.037,3.037,0,0,0,0-6.074c-13.29,0-23.05,2.042-28.99,6.035a3.079,3.079,0,0,0-.87,4.227A3.01,3.01,0,0,0,1223.63,984.634Zm0,16.156a3.112,3.112,0,0,0,1.65-.5c6.21-4.179,17.4-5.059,25.7-5.059a3.031,3.031,0,0,0,0-6.061c-13.29,0-23.05,2.029-28.99,6.036a3.075,3.075,0,0,0-.87,4.226A3,3,0,0,0,1223.63,1000.79Zm42.3,36.74H1159.08a3.03,3.03,0,0,1,0-6.06h106.85A3.03,3.03,0,0,1,1265.93,1037.53Zm6.67,13.26H1152.4a3.035,3.035,0,0,1,0-6.07h120.2A3.035,3.035,0,0,1,1272.6,1050.79Zm-43.18,28.22h-33.85a3.04,3.04,0,0,1,0-6.08h33.85A3.04,3.04,0,0,1,1229.42,1079.01Z" transform="translate(-1113 -918)"/>
</svg>
